<svg width="20" height="20" viewBox="0 0 20 20" fill="none" xmlns="http://www.w3.org/2000/svg">
<path fill-rule="evenodd" clip-rule="evenodd" d="M6.60006 3.3335H15.8334C16.4964 3.3335 17.1323 3.59689 17.6012 4.06573C18.07 4.53457 18.3334 5.17045 18.3334 5.8335V14.1668C18.3334 14.8299 18.07 15.4658 17.6012 15.9346C17.1323 16.4034 16.4964 16.6668 15.8334 16.6668H6.60006C6.23936 16.6668 5.88295 16.5888 5.55527 16.438C5.22759 16.2873 4.93641 16.0674 4.70172 15.7935L1.13089 11.6268C0.742676 11.1738 0.529297 10.5968 0.529297 10.0002C0.529297 9.40353 0.742676 8.82656 1.13089 8.3735L4.70172 4.20683C4.93641 3.93293 5.22759 3.71306 5.55527 3.56232C5.88295 3.41157 6.23936 3.33351 6.60006 3.3335ZM8.57755 7.74433C8.73383 7.5881 8.94575 7.50034 9.16672 7.50034C9.38769 7.50034 9.59962 7.5881 9.75589 7.74433L10.8334 8.82183L11.9109 7.74433C11.9878 7.66474 12.0797 7.60125 12.1814 7.55758C12.2831 7.5139 12.3924 7.49092 12.5031 7.48995C12.6137 7.48899 12.7234 7.51008 12.8259 7.55198C12.9283 7.59388 13.0213 7.65576 13.0996 7.734C13.1778 7.81224 13.2397 7.90529 13.2816 8.0077C13.3235 8.11011 13.3446 8.21985 13.3436 8.3305C13.3426 8.44115 13.3196 8.5505 13.276 8.65217C13.2323 8.75384 13.1688 8.84579 13.0892 8.92266L12.0117 10.0002L13.0892 11.0777C13.241 11.2348 13.325 11.4453 13.3231 11.6638C13.3212 11.8823 13.2336 12.0913 13.0791 12.2458C12.9246 12.4004 12.7156 12.488 12.4971 12.4899C12.2786 12.4918 12.0681 12.4078 11.9109 12.256L10.8334 11.1785L9.75589 12.256C9.67902 12.3356 9.58706 12.3991 9.48539 12.4427C9.38372 12.4864 9.27437 12.5094 9.16372 12.5104C9.05307 12.5113 8.94334 12.4902 8.84093 12.4483C8.73851 12.4064 8.64547 12.3446 8.56723 12.2663C8.48898 12.1881 8.4271 12.095 8.3852 11.9926C8.3433 11.8902 8.32222 11.7805 8.32318 11.6698C8.32414 11.5592 8.34713 11.4498 8.3908 11.3482C8.43448 11.2465 8.49796 11.1545 8.57755 11.0777L9.65506 10.0002L8.57755 8.92266C8.42133 8.76639 8.33357 8.55447 8.33357 8.3335C8.33357 8.11253 8.42133 7.9006 8.57755 7.74433Z" fill="#818181"/>
</svg>
