<svg width="20" height="20" viewBox="0 0 20 20" fill="none" xmlns="http://www.w3.org/2000/svg">
<path d="M4.0625 3.75C3.31658 3.75 2.60121 4.04632 2.07376 4.57376C1.54632 5.10121 1.25 5.81658 1.25 6.5625V13.4375C1.25 14.1834 1.54632 14.8988 2.07376 15.4262C2.60121 15.9537 3.31658 16.25 4.0625 16.25H15.9375C16.6834 16.25 17.3988 15.9537 17.9262 15.4262C18.4537 14.8988 18.75 14.1834 18.75 13.4375V6.5625C18.75 5.81658 18.4537 5.10121 17.9262 4.57376C17.3988 4.04632 16.6834 3.75 15.9375 3.75H4.0625ZM2.5 6.5625C2.5 6.1481 2.66462 5.75067 2.95765 5.45765C3.25067 5.16462 3.6481 5 4.0625 5H15.9375C16.3519 5 16.7493 5.16462 17.0424 5.45765C17.3354 5.75067 17.5 6.1481 17.5 6.5625V13.4375C17.5 13.6427 17.4596 13.8459 17.3811 14.0354C17.3025 14.225 17.1874 14.3973 17.0424 14.5424C16.8973 14.6874 16.725 14.8025 16.5354 14.8811C16.3459 14.9596 16.1427 15 15.9375 15H4.0625C3.85731 15 3.65413 14.9596 3.46456 14.8811C3.27499 14.8025 3.10274 14.6874 2.95765 14.5424C2.81255 14.3973 2.69746 14.225 2.61894 14.0354C2.54042 13.8459 2.5 13.6427 2.5 13.4375V6.5625ZM4.81687 8.30813C4.699 8.19428 4.54112 8.13128 4.37725 8.1327C4.21338 8.13413 4.05662 8.19986 3.94074 8.31574C3.82486 8.43162 3.75913 8.58838 3.7577 8.75225C3.75628 8.91612 3.81928 9.074 3.93313 9.19187L4.74125 10L3.93313 10.8081C3.87343 10.8658 3.82582 10.9347 3.79306 11.011C3.76031 11.0872 3.74306 11.1693 3.74234 11.2522C3.74162 11.3352 3.75744 11.4175 3.78886 11.4943C3.82029 11.5712 3.8667 11.6409 3.92538 11.6996C3.98406 11.7583 4.05384 11.8047 4.13065 11.8361C4.20746 11.8676 4.28976 11.8834 4.37275 11.8827C4.45574 11.8819 4.53775 11.8647 4.614 11.8319C4.69026 11.7992 4.75922 11.7516 4.81687 11.6919L5.625 10.8837L6.43313 11.6919C6.551 11.8057 6.70888 11.8687 6.87275 11.8673C7.03662 11.8659 7.19338 11.8001 7.30926 11.6843C7.42514 11.5684 7.49087 11.4116 7.4923 11.2478C7.49372 11.0839 7.43072 10.926 7.31687 10.8081L6.50875 10L7.31687 9.19187C7.43072 9.074 7.49372 8.91612 7.4923 8.75225C7.49087 8.58838 7.42514 8.43162 7.30926 8.31574C7.19338 8.19986 7.03662 8.13413 6.87275 8.1327C6.70888 8.13128 6.551 8.19428 6.43313 8.30813L5.625 9.11625L4.81687 8.30813ZM8.62063 8.30813C8.73783 8.19096 8.89677 8.12513 9.0625 8.12513C9.22823 8.12513 9.38717 8.19096 9.50437 8.30813L10.3125 9.11625L11.1206 8.30813C11.2385 8.19428 11.3964 8.13128 11.5603 8.1327C11.7241 8.13413 11.8809 8.19986 11.9968 8.31574C12.1126 8.43162 12.1784 8.58838 12.1798 8.75225C12.1812 8.91612 12.1182 9.074 12.0044 9.19187L11.1962 10L12.0044 10.8081C12.1182 10.926 12.1812 11.0839 12.1798 11.2478C12.1784 11.4116 12.1126 11.5684 11.9968 11.6843C11.8809 11.8001 11.7241 11.8659 11.5603 11.8673C11.3964 11.8687 11.2385 11.8057 11.1206 11.6919L10.3125 10.8837L9.50437 11.6919C9.3865 11.8057 9.22862 11.8687 9.06475 11.8673C8.90088 11.8659 8.74412 11.8001 8.62824 11.6843C8.51236 11.5684 8.44663 11.4116 8.4452 11.2478C8.44378 11.0839 8.50678 10.926 8.62063 10.8081L9.42875 10L8.62063 9.19187C8.50346 9.07467 8.43763 8.91573 8.43763 8.75C8.43763 8.58427 8.50346 8.42533 8.62063 8.30813ZM13.75 10.625C13.5842 10.625 13.4253 10.6908 13.3081 10.8081C13.1908 10.9253 13.125 11.0842 13.125 11.25C13.125 11.4158 13.1908 11.5747 13.3081 11.6919C13.4253 11.8092 13.5842 11.875 13.75 11.875H15.625C15.7908 11.875 15.9497 11.8092 16.0669 11.6919C16.1842 11.5747 16.25 11.4158 16.25 11.25C16.25 11.0842 16.1842 10.9253 16.0669 10.8081C15.9497 10.6908 15.7908 10.625 15.625 10.625H13.75Z" fill="#818181"/>
</svg>
