<svg width="24" height="24" viewBox="0 0 24 24" fill="none" xmlns="http://www.w3.org/2000/svg">
<path fill-rule="evenodd" clip-rule="evenodd" d="M3 3C3 2.73478 3.10536 2.48043 3.29289 2.29289C3.48043 2.10536 3.73478 2 4 2H16C16.2652 2 16.5196 2.10536 16.7071 2.29289C16.8946 2.48043 17 2.73478 17 3C17 3.26522 16.8946 3.51957 16.7071 3.70711C16.5196 3.89464 16.2652 4 16 4H5V16C5 16.2652 4.89464 16.5196 4.70711 16.7071C4.51957 16.8946 4.26522 17 4 17C3.73478 17 3.48043 16.8946 3.29289 16.7071C3.10536 16.5196 3 16.2652 3 16V3ZM7 7C7 6.73478 7.10536 6.48043 7.29289 6.29289C7.48043 6.10536 7.73478 6 8 6H20C20.2652 6 20.5196 6.10536 20.7071 6.29289C20.8946 6.48043 21 6.73478 21 7V19C21 19.7956 20.6839 20.5587 20.1213 21.1213C19.5587 21.6839 18.7956 22 18 22H10C9.20435 22 8.44129 21.6839 7.87868 21.1213C7.31607 20.5587 7 19.7956 7 19V7Z" fill="#121212"/>
</svg>
