<svg width="20" height="20" viewBox="0 0 20 20" fill="none" xmlns="http://www.w3.org/2000/svg">
<path fill-rule="evenodd" clip-rule="evenodd" d="M18 10.1894C18 9.5985 17.947 9.03032 17.8485 8.48486H10V11.7083H14.4848C14.2917 12.75 13.7045 13.6326 12.822 14.2235V16.3144H15.5152C17.0909 14.8637 18 12.7273 18 10.1894Z" fill="#4285F4"/>
<path fill-rule="evenodd" clip-rule="evenodd" d="M9.9997 18.3333C12.2497 18.3333 14.1361 17.587 15.5149 16.3143L12.8217 14.2234C12.0755 14.7234 11.1209 15.0189 9.9997 15.0189C7.82925 15.0189 5.99213 13.5529 5.33683 11.5833H2.55273V13.7423C3.92395 16.4658 6.74213 18.3333 9.9997 18.3333Z" fill="#34A853"/>
<path fill-rule="evenodd" clip-rule="evenodd" d="M5.33745 11.5833C5.17078 11.0833 5.07608 10.5492 5.07608 9.99999C5.07608 9.45075 5.17078 8.91666 5.33745 8.41666V6.25757H2.55336C1.98896 7.38257 1.66699 8.6553 1.66699 9.99999C1.66699 11.3447 1.98896 12.6174 2.55336 13.7424L5.33745 11.5833Z" fill="#FBBC05"/>
<path fill-rule="evenodd" clip-rule="evenodd" d="M9.9997 4.98114C11.2232 4.98114 12.3217 5.4016 13.1853 6.22735L15.5755 3.8372C14.1323 2.49251 12.2459 1.66675 9.9997 1.66675C6.74213 1.66675 3.92395 3.53417 2.55273 6.25766L5.33683 8.41675C5.99213 6.44705 7.82925 4.98114 9.9997 4.98114Z" fill="#EA4335"/>
</svg>
