<svg width="20" height="20" viewBox="0 0 20 20" fill="none" xmlns="http://www.w3.org/2000/svg">
<path d="M6.66699 8.33346V5.83346C6.66619 5.02157 6.96173 4.23731 7.49814 3.62786C8.03455 3.01841 8.77495 2.62568 9.58036 2.5234C10.3858 2.42111 11.2008 2.61629 11.8726 3.0723C12.5443 3.52832 13.0265 4.21381 13.2287 5.00013" stroke="#818181" stroke-width="1.66667" stroke-linecap="round"/>
<path d="M4.16699 8.33325H15.8337V15.8333C15.8337 16.2753 15.6581 16.6992 15.3455 17.0118C15.0329 17.3243 14.609 17.4999 14.167 17.4999H5.83366C5.39163 17.4999 4.96771 17.3243 4.65515 17.0118C4.34259 16.6992 4.16699 16.2753 4.16699 15.8333V8.33325Z" stroke="#818181" stroke-width="1.66667" stroke-linejoin="round"/>
<path d="M12.084 12.9167H12.0923V12.9251H12.084V12.9167Z" stroke="#818181" stroke-width="2.5" stroke-linejoin="round"/>
</svg>
