<svg width="20" height="20" viewBox="0 0 20 20" fill="none" xmlns="http://www.w3.org/2000/svg">
<path d="M2.50033 4.16671V3.33337C2.27931 3.33337 2.06735 3.42117 1.91107 3.57745C1.75479 3.73373 1.66699 3.94569 1.66699 4.16671H2.50033ZM17.5003 4.16671H18.3337C18.3337 3.94569 18.2459 3.73373 18.0896 3.57745C17.9333 3.42117 17.7213 3.33337 17.5003 3.33337V4.16671ZM2.50033 5.00004H17.5003V3.33337H2.50033V5.00004ZM16.667 4.16671V14.1667H18.3337V4.16671H16.667ZM15.8337 15H4.16699V16.6667H15.8337V15ZM3.33366 14.1667V4.16671H1.66699V14.1667H3.33366ZM4.16699 15C3.94598 15 3.73402 14.9122 3.57774 14.756C3.42146 14.5997 3.33366 14.3877 3.33366 14.1667H1.66699C1.66699 14.8297 1.93038 15.4656 2.39923 15.9345C2.86807 16.4033 3.50395 16.6667 4.16699 16.6667V15ZM16.667 14.1667C16.667 14.3877 16.5792 14.5997 16.4229 14.756C16.2666 14.9122 16.0547 15 15.8337 15V16.6667C16.4967 16.6667 17.1326 16.4033 17.6014 15.9345C18.0703 15.4656 18.3337 14.8297 18.3337 14.1667H16.667Z" fill="#818181"/>
<path d="M2.5 4.16675L10 11.6667L17.5 4.16675" stroke="#818181" stroke-width="1.66667" stroke-linecap="round" stroke-linejoin="round"/>
</svg>
