<svg width="20" height="20" viewBox="0 0 20 20" fill="none" xmlns="http://www.w3.org/2000/svg">
<path d="M3.75 14.1667H3.33333C3.11232 14.1667 2.90036 14.0789 2.74408 13.9226C2.5878 13.7663 2.5 13.5543 2.5 13.3333C2.5 12.6703 2.76339 12.0344 3.23223 11.5656C3.70107 11.0967 4.33696 10.8333 5 10.8333H5.83333M5.83333 8.29165C5.52735 8.22907 5.23935 8.09849 4.99064 7.90958C4.74193 7.72067 4.53888 7.47825 4.3965 7.20027C4.25413 6.92229 4.17608 6.61585 4.16812 6.30363C4.16017 5.99142 4.22251 5.6814 4.35054 5.39653C4.47858 5.11166 4.66902 4.85922 4.90779 4.65789C5.14655 4.45655 5.42753 4.31148 5.72993 4.2334C6.03233 4.15531 6.34842 4.14622 6.65481 4.20679C6.9612 4.26736 7.25006 4.39604 7.5 4.58332M16.25 14.1667H16.6667C16.8877 14.1667 17.0996 14.0789 17.2559 13.9226C17.4122 13.7663 17.5 13.5543 17.5 13.3333C17.5 12.6703 17.2366 12.0344 16.7678 11.5656C16.2989 11.0967 15.663 10.8333 15 10.8333H14.1667M14.1667 8.29165C14.4727 8.22907 14.7607 8.09849 15.0094 7.90958C15.2581 7.72067 15.4611 7.47825 15.6035 7.20027C15.7459 6.92229 15.8239 6.61585 15.8319 6.30363C15.8398 5.99142 15.7775 5.6814 15.6495 5.39653C15.5214 5.11166 15.331 4.85922 15.0922 4.65789C14.8534 4.45655 14.5725 4.31148 14.2701 4.2334C13.9677 4.15531 13.6516 4.14622 13.3452 4.20679C13.0388 4.26736 12.7499 4.39604 12.5 4.58332M12.9167 15.8333H7.08333C6.86232 15.8333 6.65036 15.7455 6.49408 15.5892C6.3378 15.433 6.25 15.221 6.25 15C6.25 14.3369 6.51339 13.7011 6.98223 13.2322C7.45107 12.7634 8.08696 12.5 8.75 12.5H11.25C11.913 12.5 12.5489 12.7634 13.0178 13.2322C13.4866 13.7011 13.75 14.3369 13.75 15C13.75 15.221 13.6622 15.433 13.5059 15.5892C13.3496 15.7455 13.1377 15.8333 12.9167 15.8333ZM12.0833 7.91665C12.0833 8.46919 11.8638 8.99909 11.4731 9.38979C11.0824 9.78049 10.5525 9.99998 10 9.99998C9.44747 9.99998 8.91756 9.78049 8.52686 9.38979C8.13616 8.99909 7.91667 8.46919 7.91667 7.91665C7.91667 7.36412 8.13616 6.83421 8.52686 6.44351C8.91756 6.05281 9.44747 5.83332 10 5.83332C10.5525 5.83332 11.0824 6.05281 11.4731 6.44351C11.8638 6.83421 12.0833 7.36412 12.0833 7.91665Z" stroke="#818181" stroke-width="1.66667" stroke-linecap="round"/>
</svg>
