<svg width="140" height="108" viewBox="0 0 140 108" fill="none" xmlns="http://www.w3.org/2000/svg">
<ellipse opacity="0.03" cx="70" cy="88" rx="70" ry="20" fill="url(#paint0_linear_2805_5712)"/>
<path opacity="0.4" d="M81.6 8H58.4C55.68 8 51.84 9.6 49.92 11.52L33.52 27.92C31.6 29.84 30 33.68 30 36.4V59.6C30 62.32 31.6 66.16 33.52 68.08L49.92 84.48C51.84 86.4 55.68 88 58.4 88H81.6C84.32 88 88.16 86.4 90.08 84.48L106.48 68.08C108.4 66.16 110 62.32 110 59.6V36.4C110 33.68 108.4 29.84 106.48 27.92L90.08 11.52C88.16 9.6 84.32 8 81.6 8Z" fill="#FF4343"/>
<path d="M74.2376 47.9996L86.118 36.1198C87.278 34.9598 87.278 33.0398 86.118 31.8798C84.958 30.7198 83.038 30.7198 81.878 31.8798L69.998 43.7596L58.1178 31.8798C56.9578 30.7198 55.0378 30.7198 53.8778 31.8798C52.7178 33.0398 52.7178 34.9598 53.8778 36.1198L65.758 47.9996L53.8778 59.8796C52.7178 61.0396 52.7178 62.9596 53.8778 64.1196C54.4778 64.7196 55.2378 64.9996 55.9978 64.9996C56.7578 64.9996 57.5178 64.7196 58.1178 64.1196L69.998 52.2396L81.878 64.1196C82.478 64.7196 83.238 64.9996 83.998 64.9996C84.758 64.9996 85.518 64.7196 86.118 64.1196C87.278 62.9596 87.278 61.0396 86.118 59.8796L74.2376 47.9996Z" fill="#FF4343"/>
<defs>
<linearGradient id="paint0_linear_2805_5712" x1="70" y1="108" x2="70" y2="68" gradientUnits="userSpaceOnUse">
<stop stop-color="white"/>
<stop offset="1" stop-color="#595959"/>
</linearGradient>
</defs>
</svg>
